<mxfile host="app.diagrams.net" modified="2022-12-13T03:09:31.042Z" agent="5.0 (Windows NT 10.0; Win64; x64) AppleWebKit/537.36 (KHTML, like Gecko) Chrome/108.0.0.0 Safari/537.36" etag="zPjtPbuCEQHhPPHC1kzQ" version="20.6.2" type="github">
  <diagram id="4v9ztSrbZ17iGiP-d_EN" name="第 1 页">
    <mxGraphModel dx="1673" dy="896" grid="1" gridSize="10" guides="1" tooltips="1" connect="1" arrows="1" fold="1" page="1" pageScale="1" pageWidth="827" pageHeight="1169" math="0" shadow="0">
      <root>
        <mxCell id="0" />
        <mxCell id="1" parent="0" />
        <mxCell id="DEvo0PoXJ41csMdeebTl-7" value="DS相关交互流程" style="swimlane;childLayout=stackLayout;resizeParent=1;resizeParentMax=0;startSize=20;html=1;" parent="1" vertex="1">
          <mxGeometry x="40" y="240" width="1510" height="1510" as="geometry" />
        </mxCell>
        <mxCell id="DEvo0PoXJ41csMdeebTl-8" value="Client" style="swimlane;startSize=20;html=1;" parent="DEvo0PoXJ41csMdeebTl-7" vertex="1">
          <mxGeometry y="20" width="190" height="1490" as="geometry" />
        </mxCell>
        <mxCell id="lanNdwcCDtCzyVDGoeAC-11" value="开始匹配" style="ellipse;whiteSpace=wrap;html=1;" vertex="1" parent="DEvo0PoXJ41csMdeebTl-8">
          <mxGeometry x="45" y="120" width="100" height="50" as="geometry" />
        </mxCell>
        <mxCell id="lanNdwcCDtCzyVDGoeAC-33" style="edgeStyle=orthogonalEdgeStyle;rounded=0;orthogonalLoop=1;jettySize=auto;html=1;exitX=0.5;exitY=1;exitDx=0;exitDy=0;entryX=0.5;entryY=0;entryDx=0;entryDy=0;" edge="1" parent="DEvo0PoXJ41csMdeebTl-8" source="lanNdwcCDtCzyVDGoeAC-30" target="lanNdwcCDtCzyVDGoeAC-32">
          <mxGeometry relative="1" as="geometry" />
        </mxCell>
        <mxCell id="lanNdwcCDtCzyVDGoeAC-30" value="匹配完成" style="rounded=0;whiteSpace=wrap;html=1;" vertex="1" parent="DEvo0PoXJ41csMdeebTl-8">
          <mxGeometry x="45" y="290" width="90" height="45" as="geometry" />
        </mxCell>
        <mxCell id="lanNdwcCDtCzyVDGoeAC-32" value="读秒倒计时" style="rounded=0;whiteSpace=wrap;html=1;" vertex="1" parent="DEvo0PoXJ41csMdeebTl-8">
          <mxGeometry x="45" y="390" width="90" height="45" as="geometry" />
        </mxCell>
        <mxCell id="lanNdwcCDtCzyVDGoeAC-74" style="edgeStyle=orthogonalEdgeStyle;rounded=0;orthogonalLoop=1;jettySize=auto;html=1;entryX=0.5;entryY=0;entryDx=0;entryDy=0;" edge="1" parent="DEvo0PoXJ41csMdeebTl-8" source="lanNdwcCDtCzyVDGoeAC-71" target="lanNdwcCDtCzyVDGoeAC-73">
          <mxGeometry relative="1" as="geometry" />
        </mxCell>
        <mxCell id="lanNdwcCDtCzyVDGoeAC-71" value="通知可用的DS" style="rounded=0;whiteSpace=wrap;html=1;" vertex="1" parent="DEvo0PoXJ41csMdeebTl-8">
          <mxGeometry x="50" y="750" width="90" height="45" as="geometry" />
        </mxCell>
        <mxCell id="lanNdwcCDtCzyVDGoeAC-73" value="进入DS" style="rounded=0;whiteSpace=wrap;html=1;" vertex="1" parent="DEvo0PoXJ41csMdeebTl-8">
          <mxGeometry x="50" y="840" width="90" height="45" as="geometry" />
        </mxCell>
        <mxCell id="lanNdwcCDtCzyVDGoeAC-75" value="&lt;font style=&quot;font-size: 22px;&quot;&gt;&lt;b&gt;单局主流程&lt;/b&gt;&lt;/font&gt;" style="text;html=1;strokeColor=none;fillColor=none;align=center;verticalAlign=middle;whiteSpace=wrap;rounded=0;" vertex="1" parent="DEvo0PoXJ41csMdeebTl-8">
          <mxGeometry x="8.75" y="30" width="172.5" height="60" as="geometry" />
        </mxCell>
        <mxCell id="DEvo0PoXJ41csMdeebTl-9" value="Gate" style="swimlane;startSize=20;html=1;" parent="DEvo0PoXJ41csMdeebTl-7" vertex="1">
          <mxGeometry x="190" y="20" width="180" height="1490" as="geometry" />
        </mxCell>
        <mxCell id="lanNdwcCDtCzyVDGoeAC-12" value="进入匹配" style="rounded=0;whiteSpace=wrap;html=1;" vertex="1" parent="DEvo0PoXJ41csMdeebTl-9">
          <mxGeometry x="50" y="122.5" width="90" height="45" as="geometry" />
        </mxCell>
        <mxCell id="lanNdwcCDtCzyVDGoeAC-28" value="匹配完成" style="rounded=0;whiteSpace=wrap;html=1;" vertex="1" parent="DEvo0PoXJ41csMdeebTl-9">
          <mxGeometry x="45" y="290" width="90" height="45" as="geometry" />
        </mxCell>
        <mxCell id="lanNdwcCDtCzyVDGoeAC-69" value="通知可用的DS" style="rounded=0;whiteSpace=wrap;html=1;" vertex="1" parent="DEvo0PoXJ41csMdeebTl-9">
          <mxGeometry x="30" y="750" width="90" height="45" as="geometry" />
        </mxCell>
        <mxCell id="DEvo0PoXJ41csMdeebTl-10" value="Lobby" style="swimlane;startSize=20;html=1;" parent="DEvo0PoXJ41csMdeebTl-7" vertex="1">
          <mxGeometry x="370" y="20" width="200" height="1490" as="geometry">
            <mxRectangle x="370" y="20" width="40" height="460" as="alternateBounds" />
          </mxGeometry>
        </mxCell>
        <mxCell id="lanNdwcCDtCzyVDGoeAC-13" value="进入匹配" style="rounded=0;whiteSpace=wrap;html=1;" vertex="1" parent="DEvo0PoXJ41csMdeebTl-10">
          <mxGeometry x="55" y="122.5" width="90" height="45" as="geometry" />
        </mxCell>
        <mxCell id="lanNdwcCDtCzyVDGoeAC-23" value="匹配完成" style="rounded=0;whiteSpace=wrap;html=1;" vertex="1" parent="DEvo0PoXJ41csMdeebTl-10">
          <mxGeometry x="55" y="290" width="90" height="45" as="geometry" />
        </mxCell>
        <mxCell id="lanNdwcCDtCzyVDGoeAC-67" value="通知可用的DS" style="rounded=0;whiteSpace=wrap;html=1;" vertex="1" parent="DEvo0PoXJ41csMdeebTl-10">
          <mxGeometry x="50" y="750" width="90" height="45" as="geometry" />
        </mxCell>
        <mxCell id="lanNdwcCDtCzyVDGoeAC-8" value="Match" style="swimlane;startSize=20;html=1;" vertex="1" parent="DEvo0PoXJ41csMdeebTl-7">
          <mxGeometry x="570" y="20" width="200" height="1490" as="geometry">
            <mxRectangle x="370" y="20" width="40" height="460" as="alternateBounds" />
          </mxGeometry>
        </mxCell>
        <mxCell id="lanNdwcCDtCzyVDGoeAC-21" style="edgeStyle=orthogonalEdgeStyle;rounded=0;orthogonalLoop=1;jettySize=auto;html=1;exitX=0.5;exitY=1;exitDx=0;exitDy=0;" edge="1" parent="lanNdwcCDtCzyVDGoeAC-8" source="lanNdwcCDtCzyVDGoeAC-16" target="lanNdwcCDtCzyVDGoeAC-17">
          <mxGeometry relative="1" as="geometry" />
        </mxCell>
        <mxCell id="lanNdwcCDtCzyVDGoeAC-16" value="进入匹配池" style="rounded=0;whiteSpace=wrap;html=1;" vertex="1" parent="lanNdwcCDtCzyVDGoeAC-8">
          <mxGeometry x="70" y="122.5" width="90" height="45" as="geometry" />
        </mxCell>
        <mxCell id="lanNdwcCDtCzyVDGoeAC-26" style="edgeStyle=orthogonalEdgeStyle;rounded=0;orthogonalLoop=1;jettySize=auto;html=1;exitX=0.5;exitY=1;exitDx=0;exitDy=0;" edge="1" parent="lanNdwcCDtCzyVDGoeAC-8" source="lanNdwcCDtCzyVDGoeAC-17" target="lanNdwcCDtCzyVDGoeAC-22">
          <mxGeometry relative="1" as="geometry" />
        </mxCell>
        <mxCell id="lanNdwcCDtCzyVDGoeAC-17" value="匹配撮合" style="rounded=0;whiteSpace=wrap;html=1;" vertex="1" parent="lanNdwcCDtCzyVDGoeAC-8">
          <mxGeometry x="70" y="210" width="90" height="45" as="geometry" />
        </mxCell>
        <mxCell id="lanNdwcCDtCzyVDGoeAC-22" value="撮合完成" style="rounded=0;whiteSpace=wrap;html=1;" vertex="1" parent="lanNdwcCDtCzyVDGoeAC-8">
          <mxGeometry x="70" y="290" width="90" height="45" as="geometry" />
        </mxCell>
        <mxCell id="lanNdwcCDtCzyVDGoeAC-65" value="获取到可用的DS" style="rounded=0;whiteSpace=wrap;html=1;" vertex="1" parent="lanNdwcCDtCzyVDGoeAC-8">
          <mxGeometry x="55" y="750" width="90" height="45" as="geometry" />
        </mxCell>
        <mxCell id="lanNdwcCDtCzyVDGoeAC-42" style="edgeStyle=orthogonalEdgeStyle;rounded=0;orthogonalLoop=1;jettySize=auto;html=1;exitX=1;exitY=0.5;exitDx=0;exitDy=0;" edge="1" parent="DEvo0PoXJ41csMdeebTl-7" source="lanNdwcCDtCzyVDGoeAC-39" target="lanNdwcCDtCzyVDGoeAC-41">
          <mxGeometry relative="1" as="geometry" />
        </mxCell>
        <mxCell id="lanNdwcCDtCzyVDGoeAC-1" value="DsCenter" style="swimlane;startSize=20;html=1;" vertex="1" parent="DEvo0PoXJ41csMdeebTl-7">
          <mxGeometry x="770" y="20" width="340" height="1490" as="geometry">
            <mxRectangle x="370" y="20" width="40" height="460" as="alternateBounds" />
          </mxGeometry>
        </mxCell>
        <mxCell id="lanNdwcCDtCzyVDGoeAC-37" value="" style="edgeStyle=orthogonalEdgeStyle;rounded=0;orthogonalLoop=1;jettySize=auto;html=1;" edge="1" parent="lanNdwcCDtCzyVDGoeAC-1" source="lanNdwcCDtCzyVDGoeAC-34" target="lanNdwcCDtCzyVDGoeAC-35">
          <mxGeometry relative="1" as="geometry" />
        </mxCell>
        <mxCell id="lanNdwcCDtCzyVDGoeAC-34" value="分配DS" style="rounded=0;whiteSpace=wrap;html=1;" vertex="1" parent="lanNdwcCDtCzyVDGoeAC-1">
          <mxGeometry x="60" y="380" width="90" height="45" as="geometry" />
        </mxCell>
        <mxCell id="lanNdwcCDtCzyVDGoeAC-38" value="" style="edgeStyle=orthogonalEdgeStyle;rounded=0;orthogonalLoop=1;jettySize=auto;html=1;" edge="1" parent="lanNdwcCDtCzyVDGoeAC-1" source="lanNdwcCDtCzyVDGoeAC-35" target="lanNdwcCDtCzyVDGoeAC-34">
          <mxGeometry relative="1" as="geometry" />
        </mxCell>
        <mxCell id="lanNdwcCDtCzyVDGoeAC-40" value="Y" style="edgeStyle=orthogonalEdgeStyle;rounded=0;orthogonalLoop=1;jettySize=auto;html=1;" edge="1" parent="lanNdwcCDtCzyVDGoeAC-1" source="lanNdwcCDtCzyVDGoeAC-35" target="lanNdwcCDtCzyVDGoeAC-39">
          <mxGeometry relative="1" as="geometry" />
        </mxCell>
        <mxCell id="lanNdwcCDtCzyVDGoeAC-45" style="edgeStyle=orthogonalEdgeStyle;rounded=0;orthogonalLoop=1;jettySize=auto;html=1;entryX=0;entryY=0.5;entryDx=0;entryDy=0;" edge="1" parent="lanNdwcCDtCzyVDGoeAC-1" source="lanNdwcCDtCzyVDGoeAC-35" target="lanNdwcCDtCzyVDGoeAC-44">
          <mxGeometry relative="1" as="geometry" />
        </mxCell>
        <mxCell id="lanNdwcCDtCzyVDGoeAC-35" value="有空闲的DS" style="rhombus;whiteSpace=wrap;html=1;" vertex="1" parent="lanNdwcCDtCzyVDGoeAC-1">
          <mxGeometry x="42.5" y="470" width="125" height="50" as="geometry" />
        </mxCell>
        <mxCell id="lanNdwcCDtCzyVDGoeAC-39" value="选择空闲DS" style="rounded=0;whiteSpace=wrap;html=1;" vertex="1" parent="lanNdwcCDtCzyVDGoeAC-1">
          <mxGeometry x="60" y="630" width="90" height="45" as="geometry" />
        </mxCell>
        <mxCell id="lanNdwcCDtCzyVDGoeAC-44" value="选择DsAgent" style="rounded=0;whiteSpace=wrap;html=1;" vertex="1" parent="lanNdwcCDtCzyVDGoeAC-1">
          <mxGeometry x="230" y="472.5" width="90" height="45" as="geometry" />
        </mxCell>
        <mxCell id="lanNdwcCDtCzyVDGoeAC-61" value="获取到可用的DS" style="rounded=0;whiteSpace=wrap;html=1;" vertex="1" parent="lanNdwcCDtCzyVDGoeAC-1">
          <mxGeometry x="60" y="750" width="90" height="45" as="geometry" />
        </mxCell>
        <mxCell id="lanNdwcCDtCzyVDGoeAC-9" value="DsAgent" style="swimlane;startSize=20;html=1;" vertex="1" parent="DEvo0PoXJ41csMdeebTl-7">
          <mxGeometry x="1110" y="20" width="200" height="1490" as="geometry">
            <mxRectangle x="370" y="20" width="40" height="460" as="alternateBounds" />
          </mxGeometry>
        </mxCell>
        <mxCell id="lanNdwcCDtCzyVDGoeAC-43" value="创建新DS" style="rounded=0;whiteSpace=wrap;html=1;" vertex="1" parent="lanNdwcCDtCzyVDGoeAC-9">
          <mxGeometry x="60" y="472.5" width="90" height="45" as="geometry" />
        </mxCell>
        <mxCell id="lanNdwcCDtCzyVDGoeAC-18" style="edgeStyle=orthogonalEdgeStyle;rounded=0;orthogonalLoop=1;jettySize=auto;html=1;exitX=1;exitY=0.5;exitDx=0;exitDy=0;entryX=0;entryY=0.5;entryDx=0;entryDy=0;" edge="1" parent="DEvo0PoXJ41csMdeebTl-7" source="lanNdwcCDtCzyVDGoeAC-11" target="lanNdwcCDtCzyVDGoeAC-12">
          <mxGeometry relative="1" as="geometry" />
        </mxCell>
        <mxCell id="lanNdwcCDtCzyVDGoeAC-19" style="edgeStyle=orthogonalEdgeStyle;rounded=0;orthogonalLoop=1;jettySize=auto;html=1;exitX=1;exitY=0.5;exitDx=0;exitDy=0;" edge="1" parent="DEvo0PoXJ41csMdeebTl-7" source="lanNdwcCDtCzyVDGoeAC-12" target="lanNdwcCDtCzyVDGoeAC-13">
          <mxGeometry relative="1" as="geometry" />
        </mxCell>
        <mxCell id="lanNdwcCDtCzyVDGoeAC-20" style="edgeStyle=orthogonalEdgeStyle;rounded=0;orthogonalLoop=1;jettySize=auto;html=1;exitX=1;exitY=0.5;exitDx=0;exitDy=0;" edge="1" parent="DEvo0PoXJ41csMdeebTl-7" source="lanNdwcCDtCzyVDGoeAC-13" target="lanNdwcCDtCzyVDGoeAC-16">
          <mxGeometry relative="1" as="geometry" />
        </mxCell>
        <mxCell id="lanNdwcCDtCzyVDGoeAC-27" style="edgeStyle=orthogonalEdgeStyle;rounded=0;orthogonalLoop=1;jettySize=auto;html=1;entryX=1;entryY=0.5;entryDx=0;entryDy=0;" edge="1" parent="DEvo0PoXJ41csMdeebTl-7" source="lanNdwcCDtCzyVDGoeAC-22" target="lanNdwcCDtCzyVDGoeAC-23">
          <mxGeometry relative="1" as="geometry" />
        </mxCell>
        <mxCell id="lanNdwcCDtCzyVDGoeAC-29" style="edgeStyle=orthogonalEdgeStyle;rounded=0;orthogonalLoop=1;jettySize=auto;html=1;exitX=0;exitY=0.5;exitDx=0;exitDy=0;entryX=1;entryY=0.5;entryDx=0;entryDy=0;" edge="1" parent="DEvo0PoXJ41csMdeebTl-7" source="lanNdwcCDtCzyVDGoeAC-23" target="lanNdwcCDtCzyVDGoeAC-28">
          <mxGeometry relative="1" as="geometry" />
        </mxCell>
        <mxCell id="lanNdwcCDtCzyVDGoeAC-31" style="edgeStyle=orthogonalEdgeStyle;rounded=0;orthogonalLoop=1;jettySize=auto;html=1;exitX=0;exitY=0.5;exitDx=0;exitDy=0;" edge="1" parent="DEvo0PoXJ41csMdeebTl-7" source="lanNdwcCDtCzyVDGoeAC-28" target="lanNdwcCDtCzyVDGoeAC-30">
          <mxGeometry relative="1" as="geometry" />
        </mxCell>
        <mxCell id="lanNdwcCDtCzyVDGoeAC-46" style="edgeStyle=orthogonalEdgeStyle;rounded=0;orthogonalLoop=1;jettySize=auto;html=1;" edge="1" parent="DEvo0PoXJ41csMdeebTl-7" source="lanNdwcCDtCzyVDGoeAC-44" target="lanNdwcCDtCzyVDGoeAC-43">
          <mxGeometry relative="1" as="geometry" />
        </mxCell>
        <mxCell id="lanNdwcCDtCzyVDGoeAC-49" style="edgeStyle=orthogonalEdgeStyle;rounded=0;orthogonalLoop=1;jettySize=auto;html=1;" edge="1" parent="DEvo0PoXJ41csMdeebTl-7" source="lanNdwcCDtCzyVDGoeAC-43" target="lanNdwcCDtCzyVDGoeAC-47">
          <mxGeometry relative="1" as="geometry" />
        </mxCell>
        <mxCell id="lanNdwcCDtCzyVDGoeAC-10" value="DS" style="swimlane;startSize=20;html=1;" vertex="1" parent="DEvo0PoXJ41csMdeebTl-7">
          <mxGeometry x="1310" y="20" width="200" height="1490" as="geometry">
            <mxRectangle x="370" y="20" width="40" height="460" as="alternateBounds" />
          </mxGeometry>
        </mxCell>
        <mxCell id="lanNdwcCDtCzyVDGoeAC-41" value="初始化房间" style="rounded=0;whiteSpace=wrap;html=1;" vertex="1" parent="lanNdwcCDtCzyVDGoeAC-10">
          <mxGeometry x="55" y="630" width="90" height="45" as="geometry" />
        </mxCell>
        <mxCell id="lanNdwcCDtCzyVDGoeAC-50" style="edgeStyle=orthogonalEdgeStyle;rounded=0;orthogonalLoop=1;jettySize=auto;html=1;entryX=0.5;entryY=0;entryDx=0;entryDy=0;" edge="1" parent="lanNdwcCDtCzyVDGoeAC-10" source="lanNdwcCDtCzyVDGoeAC-47" target="lanNdwcCDtCzyVDGoeAC-41">
          <mxGeometry relative="1" as="geometry" />
        </mxCell>
        <mxCell id="lanNdwcCDtCzyVDGoeAC-47" value="DS初始化" style="rounded=0;whiteSpace=wrap;html=1;" vertex="1" parent="lanNdwcCDtCzyVDGoeAC-10">
          <mxGeometry x="55" y="472.5" width="90" height="45" as="geometry" />
        </mxCell>
        <mxCell id="lanNdwcCDtCzyVDGoeAC-51" style="edgeStyle=orthogonalEdgeStyle;rounded=0;orthogonalLoop=1;jettySize=auto;html=1;" edge="1" parent="DEvo0PoXJ41csMdeebTl-7" source="lanNdwcCDtCzyVDGoeAC-22" target="lanNdwcCDtCzyVDGoeAC-34">
          <mxGeometry relative="1" as="geometry" />
        </mxCell>
        <mxCell id="lanNdwcCDtCzyVDGoeAC-64" style="edgeStyle=orthogonalEdgeStyle;rounded=0;orthogonalLoop=1;jettySize=auto;html=1;exitX=0.5;exitY=1;exitDx=0;exitDy=0;" edge="1" parent="DEvo0PoXJ41csMdeebTl-7" source="lanNdwcCDtCzyVDGoeAC-41" target="lanNdwcCDtCzyVDGoeAC-61">
          <mxGeometry relative="1" as="geometry">
            <mxPoint x="980" y="800" as="targetPoint" />
            <Array as="points">
              <mxPoint x="1410" y="790" />
            </Array>
          </mxGeometry>
        </mxCell>
        <mxCell id="lanNdwcCDtCzyVDGoeAC-66" style="edgeStyle=orthogonalEdgeStyle;rounded=0;orthogonalLoop=1;jettySize=auto;html=1;" edge="1" parent="DEvo0PoXJ41csMdeebTl-7" source="lanNdwcCDtCzyVDGoeAC-61" target="lanNdwcCDtCzyVDGoeAC-65">
          <mxGeometry relative="1" as="geometry" />
        </mxCell>
        <mxCell id="lanNdwcCDtCzyVDGoeAC-68" style="edgeStyle=orthogonalEdgeStyle;rounded=0;orthogonalLoop=1;jettySize=auto;html=1;entryX=1;entryY=0.5;entryDx=0;entryDy=0;" edge="1" parent="DEvo0PoXJ41csMdeebTl-7" source="lanNdwcCDtCzyVDGoeAC-65" target="lanNdwcCDtCzyVDGoeAC-67">
          <mxGeometry relative="1" as="geometry" />
        </mxCell>
        <mxCell id="lanNdwcCDtCzyVDGoeAC-70" style="edgeStyle=orthogonalEdgeStyle;rounded=0;orthogonalLoop=1;jettySize=auto;html=1;" edge="1" parent="DEvo0PoXJ41csMdeebTl-7" source="lanNdwcCDtCzyVDGoeAC-67" target="lanNdwcCDtCzyVDGoeAC-69">
          <mxGeometry relative="1" as="geometry" />
        </mxCell>
        <mxCell id="lanNdwcCDtCzyVDGoeAC-72" style="edgeStyle=orthogonalEdgeStyle;rounded=0;orthogonalLoop=1;jettySize=auto;html=1;" edge="1" parent="DEvo0PoXJ41csMdeebTl-7" source="lanNdwcCDtCzyVDGoeAC-69" target="lanNdwcCDtCzyVDGoeAC-71">
          <mxGeometry relative="1" as="geometry" />
        </mxCell>
      </root>
    </mxGraphModel>
  </diagram>
</mxfile>
